<?xml version="1.0" standalone="no"?><!DOCTYPE svg PUBLIC "-//W3C//DTD SVG 1.1//EN" "http://www.w3.org/Graphics/SVG/1.1/DTD/svg11.dtd"><svg t="1507716666629" class="icon" style="" viewBox="0 0 1024 1024" version="1.1" xmlns="http://www.w3.org/2000/svg" p-id="2227" xmlns:xlink="http://www.w3.org/1999/xlink" width="200" height="200"><defs><style type="text/css"></style></defs><path d="M511.994 0C794.77 0 1024 229.23 1024 511.994 1024 794.77 794.77 1024 511.994 1024 229.23 1024 0 794.77 0 511.994 0 229.23 229.23 0 511.994 0z" fill="#B1E3FB" p-id="2228"></path><path d="M310.974 40.996c11.142 19.664 17.504 42.392 17.504 66.612 0 74.748-60.6 135.348-135.348 135.348-35.618 0-68.008-13.758-92.168-36.252 53.768-72.272 126.132-129.868 210.012-165.708z" fill="#DFF5F9" p-id="2229"></path><path d="M287.682 51.644c11.118 17.198 17.562 37.696 17.562 59.684 0 60.858-49.33 110.19-110.19 110.19-31.158 0-59.286-12.938-79.326-33.728 46.598-56.892 105.214-103.558 171.954-136.146z" fill="#E8F8FB" p-id="2230"></path><path d="M935.928 294.35c5.318 0 10.33 0.868 14.768 2.384 4.802-3.194 11.388-5.166 18.642-5.166 1.726 0 3.404 0.106 5.036 0.316a508.85 508.85 0 0 1 22.246 54.566c-3.85 2.9-9.428 4.72-15.626 4.72-5.846 0-11.13-1.608-14.944-4.238-3.816 2.63-9.098 4.238-14.944 4.238-5.552 0-10.612-1.468-14.37-3.85-3.838 2.852-9.368 4.648-15.532 4.648-5.752 0-10.964-1.562-14.756-4.108-1.738 0.258-3.546 0.4-5.4 0.4-13.842 0-25.052-7.63-25.052-17.046s11.212-17.034 25.052-17.034c0.752 0 1.502 0.024 2.242 0.07 1.774-11.188 15.71-19.9 32.638-19.9z" fill="#FFFFFF" p-id="2231"></path><path d="M263.44 64.31a83.354 83.354 0 0 1 17.304 50.962c0 46.196-37.45 83.646-83.646 83.646-26.05 0-49.296-11.904-64.64-30.558a514.316 514.316 0 0 1 130.982-104.05z" fill="#FCFEFE" p-id="2232"></path><path d="M549.55 185.746c6.152 0 11.94 0.998 17.07 2.758 5.552-3.698 13.16-5.976 21.542-5.976 14.534 0 26.708 6.832 29.972 16.024 7.256 1.49 13.078 5.212 15.742 10.002 0.868-0.07 1.76-0.094 2.654-0.094 13.418 0 24.302 7.396 24.302 16.53 0 9.122-10.882 16.518-24.302 16.518-4.192 0-8.124-0.716-11.552-1.972-2.958 6.868-12.28 11.88-23.338 11.88-6.762 0-12.866-1.878-17.27-4.908-4.414 3.028-10.518 4.908-17.28 4.908-6.41 0-12.256-1.69-16.6-4.462-4.438 3.31-10.836 5.376-17.938 5.376-6.656 0-12.678-1.808-17.058-4.754a41.556 41.556 0 0 1-6.234 0.458c-16.002 0-28.962-8.804-28.962-19.688 0-10.872 12.96-19.688 28.962-19.688 0.868 0 1.738 0.024 2.582 0.082 2.054-12.92 18.16-22.994 37.708-22.994z" fill="#FFFFFF" p-id="2233"></path><path d="M526.868 82.648s11.588-2.478 21.284-0.622c9.708 1.854 19.828 9.92 30.782 10.542 10.954 0.61 8.676-3.522 8.676-3.522s-7.02 1.044-8.886-4.954c-1.854-5.988 5.788-10.754 17.562-19.006 11.786-8.264 14.052-16.53 11.786-21.696 0 0-2.078 3.31-11.786 8.476s-16.73 14.674-24.372 21.472c-7.642 6.832-8.066 7.232-15.286 5.788-7.232-1.444-22.728-3.71-29.76 3.522zM382.586 182.482s11.588-2.478 21.272-0.622c9.72 1.854 19.84 9.92 30.794 10.542 10.954 0.61 8.676-3.522 8.676-3.522s-7.02 1.034-8.886-4.954c-1.854-5.988 5.788-10.754 17.55-19.006 11.786-8.264 14.064-16.53 11.786-21.696 0 0-2.066 3.31-11.786 8.476-9.698 5.166-16.718 14.674-24.36 21.472-7.642 6.832-8.066 7.232-15.296 5.788-7.22-1.444-22.718-3.708-29.75 3.522zM586.378 307.17s11.576-2.478 21.272-0.622c9.72 1.854 19.84 9.92 30.794 10.542 10.942 0.61 8.664-3.522 8.664-3.522s-7.02 1.044-8.886-4.954c-1.844-5.988 5.8-10.742 17.562-18.994 11.786-8.264 14.052-16.53 11.786-21.706 0 0-2.078 3.31-11.786 8.476s-16.73 14.674-24.36 21.484c-7.654 6.82-8.066 7.232-15.296 5.788-7.222-1.458-22.73-3.724-29.75 3.508z" fill="" p-id="2234"></path><path d="M256.842 310.95L132.284 526.692h759.432l-132.354-213.51-137.202 149.728-264.45-2.488z" fill="#EFEFEF" p-id="2235"></path><path d="M320.26 526.692l81.416-142.85 19.558 38.448 95.596-166.47 90.08 177.094 54.226-94.446 61.868 121.636a252.936 252.936 0 0 1-58.852 66.588H320.26z" fill="#FFFFFF" p-id="2236"></path><path d="M516.83 255.82l105.33 207.09 38.976-124.442 96.736 188.224H514.248l22.4-20.122-53.616-27.342 67.586-37.378-33.788-18.702v-19.454z" fill="#CCCCCC" p-id="2237"></path><path d="M256.842 310.95l41.466-75.158 86.616 177.224-64.664 113.676-186.474-2.606z" fill="#FFFFFF" p-id="2238"></path><path d="M298.308 235.792l86.616 177.224-64.662 113.676c-14.698-14.628-17.386-49.93-28.128-67.808l21.59-20.192-41.688-22.118 52.548-30.254-26.274-15.132V235.792zM759.362 313.182l-43.284-76.744-52.36 107.114 59.286 116.552 34.868 66.588h133.844z" fill="#CCCCCC" p-id="2239"></path><path d="M716.078 236.438l-52.36 107.114 46.22 90.854 15.66-24.806-18.854-30.958 16.636-17.528-19.476-13.794zM182.964 287.248c4.778 0 9.286 0.774 13.29 2.136 4.32-2.876 10.238-4.648 16.776-4.648 11.306 0 20.792 5.318 23.326 12.48 5.658 1.15 10.202 4.062 12.268 7.796 0.67-0.058 1.362-0.082 2.066-0.082 3.122 0 6.082 0.516 8.688 1.432l-2.536 4.59-11.118 19.264a25.096 25.096 0 0 1-4.038-1.092c-2.29 5.354-9.556 9.25-18.174 9.25-5.26 0-10.014-1.444-13.442-3.804-3.44 2.36-8.194 3.804-13.454 3.804-4.99 0-9.544-1.314-12.938-3.464-3.452 2.572-8.43 4.192-13.958 4.192-5.188 0-9.874-1.42-13.29-3.71-1.562 0.234-3.194 0.352-4.86 0.352-12.456 0-22.54-6.856-22.54-15.332 0-8.464 10.084-15.32 22.54-15.32 0.68 0 1.35 0.012 2.02 0.058 1.598-10.072 14.136-17.902 29.374-17.902z" fill="#FFFFFF" p-id="2240"></path><path d="M0.152 524.086h1023.684C1017.426 801.274 790.732 1024 511.994 1024 233.268 1024 6.574 801.274 0.152 524.086z" fill="#7FDDE9" p-id="2241"></path><path d="M17.798 646.144h988.406C947.258 863.846 748.35 1024 511.994 1024 275.65 1024 76.742 863.846 17.798 646.144z" fill="#4CCFDF" p-id="2242"></path><path d="M66.988 765.338h890.014C868.86 919.834 702.6 1024 511.994 1024S155.13 919.834 66.988 765.338z" fill="#26C5D9" p-id="2243"></path><path d="M155.482 879.424H868.52C776.326 968.894 650.606 1024 511.994 1024s-264.32-55.106-356.512-144.576z" fill="#31BBCB" p-id="2244"></path><path d="M256.842 739.828L132.284 524.086h759.432l-132.354 213.51-137.202-149.728-264.45 2.488z" fill="#C2E2E6" p-id="2245"></path><path d="M320.26 524.086l81.416 142.85 19.558-38.448 95.596 166.47 90.08-177.094 54.226 94.446 61.868-121.636a252.936 252.936 0 0 0-58.852-66.588H320.26z" fill="#CFEFF3" p-id="2246"></path><path d="M516.83 794.958l105.33-207.09 38.976 124.442 96.736-188.224H514.248l22.4 20.122-53.616 27.342 67.586 37.38-33.788 18.7v19.454z" fill="#A6C6CA" p-id="2247"></path><path d="M256.842 739.828l41.466 75.158 86.616-177.224-64.664-113.676-186.474 2.606z" fill="#CFEFF3" p-id="2248"></path><path d="M298.308 814.986l86.616-177.224-64.662-113.676c-14.698 14.628-17.386 49.93-28.128 67.808l21.59 20.192-41.688 22.118 52.548 30.254-26.274 15.132V814.986zM759.362 737.596l-43.284 76.744-52.36-107.114 59.286-116.552 34.868-66.588h133.844z" fill="#A6C6CA" p-id="2249"></path><path d="M716.078 814.34l-52.36-107.114 46.22-90.854 15.66 24.806-18.854 30.958 16.636 17.528-19.476 13.794z" fill="#CFEFF3" p-id="2250"></path><path d="M133.786 524.086h757.93v3.91H133.786z" fill="#B3B3B3" p-id="2251"></path></svg>