<?xml version="1.0" standalone="no"?><!DOCTYPE svg PUBLIC "-//W3C//DTD SVG 1.1//EN" "http://www.w3.org/Graphics/SVG/1.1/DTD/svg11.dtd"><svg t="1507716698044" class="icon" style="" viewBox="0 0 1024 1024" version="1.1" xmlns="http://www.w3.org/2000/svg" p-id="2524" xmlns:xlink="http://www.w3.org/1999/xlink" width="200" height="200"><defs><style type="text/css"></style></defs><path d="M512 0c282.776 0 512 229.224 512 512S794.776 1024 512 1024 0 794.776 0 512 229.224 0 512 0z" fill="#B1E3FB" p-id="2525"></path><path d="M301.826 979.002c23-4.448 46.754-7.578 75.722-21.98 87.568-43.516 51.558-133.268-9.226-168.614 5.34-16.914-3.712-4.286 11.436-16.804 10.772-8.898 33.372-12.274 28.458-42.806-2.784-17.322-30.896-39.086-41.35-54.698-24.5-28.032-105.246-121.696-114.698-162l-21.07-18.132c-6.832-7.852-8.788-10.69-14.32-17.568-17.386-21.59-43.334-54.052-69.9-65.66-67.744-29.614-34.018-80.908-68.918-138.944-3.594-5.978-6.778-11.036-9.708-15.358C24.846 331.65 0 418.928 0 512c0 207.872 123.87 386.794 301.826 467.002z" fill="#6C4C40" p-id="2526"></path><path d="M301.826 979.002c23-4.448 46.754-7.578 75.722-21.98 83.21-41.35 54.824-124.452-0.354-162.946-1.046-0.436-44.534-18.942-58.856-52.35-14.484-33.808-17.432-54.234-73.658-89.36-56.216-35.128-103.854-99.014-128-148.526-15.33-31.442-70.1-65.306-108.038-85.848A515.506 515.506 0 0 0 0 512c0 207.872 123.87 386.794 301.826 467.002z" fill="#8B6E62" p-id="2527"></path><path d="M225.894 936.658c6.688-31.762 13.51-89.67 8.862-148.316-4.448-55.908-133.568-84.102-201.722-95.128 37.758 99.75 105.766 184.654 192.86 243.444z" fill="#9F877E" p-id="2528"></path><path d="M634.114 659.452c-47.492 6.132-138.336 27.076-178.122 53.36-87.24 57.626 0.838 134.878 11.9 151.136 32.58 47.856-62.804 108.676-95.366 129.502a430.388 430.388 0 0 1-12.392 7.642C408.118 1015.984 459.122 1024 512 1024c134.606 0 257.046-51.968 348.444-136.906-89.67-39.868-190.74-63.486-207.372-127.282-16.976-65.096 24.218-86.532 54.934-110.778-0.428-8.798 0.592-5.722-2.348-9.954-17.25 1.502-30.288-1.792-43.68 3.784-10.15 4.224-13.052 9.582-27.864 16.588z" fill="#606060" p-id="2529"></path><path d="M901.004 383.044c1.52 37.876-8.434 123.288-27.512 147.078-10.254 12.774-38.066 22.872-54.216 29.304-24.756 9.834-36.502 17.368-54.434 27.076-19.17 19.224-35.718-4.694-45.098 27.184-0.874 36.046 4.186 48.356-15.176 67.326-15.302 14.984-32.808 22.062-29.432 54.824 7.742 75.004 103.79 57.254 209.736 123.978l1.756 1.128C971.842 769.502 1024 646.85 1024 512c0-88.296-22.354-171.362-61.702-243.872a164.312 164.312 0 0 0-6.178 13.22c-17.524 42.624-11.318 83.7-55.116 101.696z" fill="#6C4C40" p-id="2530"></path><path d="M1014.092 612.596c-71.32 5.086-126.39 38.248-126.39 78.416 0 29.242 29.196 54.76 72.594 68.444a508.302 508.302 0 0 0 53.796-146.86z" fill="#8B6E62" p-id="2531"></path><path d="M252.17 512.1c9.452 40.304 90.198 133.968 114.698 162 20.87 1.346 163.918 2.602 181.532-2.674 10.772-3.22 49.748-24.72 95.248-22.726l-9.534 10.754c14.812-7.006 17.714-12.364 27.868-16.586 13.392-5.578 26.43-2.284 43.68-3.784 2.938 4.23 1.92 1.156 2.348 9.954 12.982-16.768-1.328-20.752 11.736-35.346 9.38-31.88 25.93-7.96 45.098-27.184-47.738-17.632-16.012-21.59-94.192-13.22-134.06 14.366-89.588-150.118-184.862-155.612-38.02-2.192-66.334 18.77-98.622-4.004-70.2-49.502-4.176-92.136-215.104-120.012 6.75 27.194 30.714 70.838 42.496 105.992l26.276 83.938c3.9 10.35 7.95 16.874 11.334 28.51z" fill="#D5CBC7" p-id="2532"></path><path d="M252.17 512.1c9.452 40.304 90.198 133.968 114.698 162 20.87 1.346 163.918 2.602 181.532-2.674 10.772-3.22 49.748-24.72 95.248-22.726l-9.534 10.754c14.812-7.006 17.714-12.364 27.868-16.586 12.982-5.404 25.63-2.474 42.106-3.658 0.364-0.446 0.746-0.91 1.164-1.374 2.566-8.706 5.658-13.256 9.208-15.648 0.8-2.484 2.338-5.222 5.286-8.498 1.974-6.732 4.276-10.964 6.85-13.656-15.002-8.216-11.664-8.888-70.428-2.592-134.068 14.356-89.588-150.118-184.862-155.622-38.03-2.184-66.334 18.778-98.632-3.994-67.37-47.5-9.326-88.688-190.94-116.572 10.118 24.51 24.51 53.57 32.826 78.398l26.276 83.938c3.9 10.35 7.95 16.874 11.334 28.51z" fill="#BBA9A3" p-id="2533"></path><path d="M252.17 512.1c9.452 40.304 90.198 133.968 114.698 162 20.87 1.346 163.918 2.602 181.532-2.674 7.124-2.128 26.566-12.236 52.068-18.278-20.024-19.324-47.746-47.574-52.768-52.932-16.112-17.178-26.538-37.694-35.828-59.082-6.186-14.248-17.25-44.698-29.05-54.67-4.094-3.466-8.516-4.586-13.81-4.886-20.798-1.2-42.96 7.396-65.752 6.724-19.698-0.582-37.412-6.578-53.524-17.942-27.95-19.698-37.374-35.8-54.078-63.704-6.186-10.326-11.072-15.094-21.972-20.698-7.434-3.83-63.576-18.042-72.82-20.934v0.01c5.15 11.864 10.016 23.654 13.692 34.618l26.276 83.938c3.902 10.35 7.952 16.874 11.336 28.51z" fill="#9F877E" p-id="2534"></path><path d="M68.254 256.436a513.594 513.594 0 0 1 40.04-59.356c22.262 27.44 45.736 64.35 63.768 96.576 6.75 27.194 30.714 70.838 42.496 105.992l26.276 83.938c3.904 10.354 7.952 16.876 11.336 28.514l-21.07-18.132c-6.832-7.852-8.788-10.69-14.32-17.568-17.386-21.59-43.334-54.052-69.9-65.66-67.744-29.614-34.018-80.908-68.918-138.944-3.594-5.98-6.78-11.038-9.708-15.36z" fill="#5C4036" p-id="2535"></path><path d="M919.836 202.468l-0.6 1.966c-10.726 35.454-14.702 65.906-17.278 105.236l-0.956 73.376c43.798-17.996 37.592-59.074 55.116-101.698a164.634 164.634 0 0 1 6.178-13.22 513.484 513.484 0 0 0-42.46-65.66z" fill="#8B8E85" p-id="2536"></path><path d="M366.868 674.1c10.454 15.612 38.566 37.374 41.35 54.698 4.912 30.532-17.686 33.908-28.458 42.806-15.148 12.518-6.096-0.11-11.436 16.804 60.784 35.346 96.794 125.098 9.226 168.614-28.968 14.402-52.724 17.532-75.722 21.98a506.986 506.986 0 0 0 58.31 22.09c4.04-2.392 8.16-4.94 12.392-7.642 32.562-20.826 127.946-81.646 95.366-129.502-11.064-16.258-99.142-93.51-11.9-151.136 39.786-26.284 130.63-47.228 178.122-53.36l9.534-10.754c-45.5-1.992-84.476 19.506-95.248 22.726-17.616 5.278-160.664 4.022-181.536 2.676zM708.008 649.034c-30.714 24.246-71.91 45.682-54.934 110.778 16.632 63.796 117.702 87.414 207.372 127.282a514.916 514.916 0 0 0 26.184-26.148l-1.756-1.128c-105.946-66.724-201.994-48.974-209.736-123.978-3.376-32.762 14.13-39.84 29.432-54.824 19.36-18.97 14.302-31.278 15.176-67.326-13.066 14.592 1.244 18.576-11.738 35.344z" fill="#D5CBC7" p-id="2537"></path><path d="M704.086 639.208c-39.932 19.024-85.922 52.586-118.238 88.268-23.082 25.466-37.912 54.742-35.182 86.996 3.394 40.14 34.728 61.176 65.596 81.9 36.274 24.338 72.348 45.654 68.072 97.868a497.348 497.348 0 0 1-11.554 3.976c3.084-45.764-29.832-70.018-62.94-92.244-33.18-22.272-66.862-44.88-70.718-90.552-3.03-35.864 13.074-67.98 38.166-95.684 33.608-37.102 85.894-61.03 126.798-80.528z" fill="#FFFFFF" p-id="2538"></path><path d="M493.94 877.768l24.1 0.292c7.888 0.1 14.338 6.624 14.338 14.512v60.802a14.16 14.16 0 0 1-14.338 14.166l-24.1-0.282c-7.888-0.1-14.33-6.624-14.33-14.512v-60.812c0.002-7.888 6.442-14.266 14.33-14.166zM692.832 880.17l24.1 0.292c7.888 0.09 14.338 6.614 14.338 14.502v60.812c0 7.888-6.45 14.266-14.338 14.166l-24.1-0.292c-7.888-0.092-14.338-6.624-14.338-14.512v-60.812a14.166 14.166 0 0 1 14.338-14.156z" fill="#424242" p-id="2539"></path><path d="M700.366 828.52c48.156 21.926 41.542 50.976 30.478 88.652-4.576 15.63-19.178 30.332-35.518 30.114l-182.962-2.492c-16.34-0.218-29.332-13.466-32.752-29.478-7.734-36.1-15.23-65.514 26.376-87.104 2.894-19.478 7.488-40.186 13.01-61.748 1.802-7.042 5.986-12.61 13.256-13.092 51.732-3.44 97.494-2.848 140.436 1.692 7.26 0.764 10.198 6.76 13.256 13.41 10.734 23.39 12.864 41.878 14.42 60.046z" fill="#FFFFFF" p-id="2540"></path><path d="M528.714 759.138l149.034 1.802 15.294 64.168-181.77-2.192zM603.498 835.662c20.198 0.246 37.448 3.33 44.244 7.452l-88.488-1.064c6.798-3.968 24.038-6.634 44.244-6.388zM563.222 859.808c24.082-1.664 50.54-1.082 80.262 0.964 21.344 1.482 12.336 46.672-3.42 49.166-27.294 4.322-46.254 5.022-72.392-0.6-15.64-3.358-26.086-48.038-4.45-49.53z" fill="#606060" p-id="2541"></path><path d="M681.678 853.986c5.778 0.072 10.462 4.804 10.462 10.58a10.302 10.302 0 0 1-10.462 10.326c-5.778-0.064-10.454-4.804-10.454-10.58a10.3 10.3 0 0 1 10.454-10.326zM712.174 854.286c7.542 0.09 13.648 6.278 13.648 13.81a13.44 13.44 0 0 1-13.648 13.484c-7.534-0.09-13.648-6.268-13.648-13.81a13.458 13.458 0 0 1 13.648-13.484z" fill="#FFFFFF" p-id="2542"></path><path d="M689.53 865.95a7.854 7.854 0 0 1-7.852 6.468 8.1 8.1 0 0 1-7.852-6.65l15.704 0.182z" fill="#BBBBBB" p-id="2543"></path><path d="M681.678 856.47a8.092 8.092 0 0 1 7.852 6.65l-15.704-0.192a7.852 7.852 0 0 1 7.852-6.458z" fill="#747474" p-id="2544"></path><path d="M712.174 864.612c1.838 0.028 3.32 1.528 3.32 3.358 0 1.838-1.482 3.302-3.32 3.284a3.37 3.37 0 0 1-3.32-3.358 3.28 3.28 0 0 1 3.32-3.284z" fill="#BBBBBB" p-id="2545"></path><path d="M715.258 856.87a11.684 11.684 0 0 1 8.434 10.99l-6.186-1.22a5.552 5.552 0 0 0-2.248-3.22v-6.55z m7.28 16.24a11.368 11.368 0 0 1-10.362 6.35 11.642 11.642 0 0 1-8.188-3.512l5.276-3.394c0.846 0.546 1.846 0.864 2.912 0.874a5.35 5.35 0 0 0 3.912-1.592l6.45 1.274z m-21.344-1.812a11.74 11.74 0 0 1-0.536-3.502 11.35 11.35 0 0 1 9.216-11.182v6.304a5.396 5.396 0 0 0-3.184 4.858h-0.01l-5.486 3.522z" fill="#747474" p-id="2546"></path><path d="M681.85 857.888c0.792 0.01 1.428 0.646 1.428 1.428s-0.636 1.41-1.428 1.402a1.43 1.43 0 0 1-1.41-1.438c0-0.772 0.628-1.4 1.41-1.392z" fill="#FFFFFF" p-id="2547"></path><path d="M673.008 890.542l45.418 0.546a4.256 4.256 0 0 1 4.194 4.258l-0.01 7.414c0 2.32-1.892 4.186-4.212 4.158l-45.418-0.546a4.266 4.266 0 0 1-4.204-4.258l0.01-7.414c0-2.322 1.902-4.186 4.222-4.158z" fill="#747474" p-id="2548"></path><path d="M673.008 890.542l2.584 0.028 0.582 15.84-2.948-0.036-0.574-15.822c0.11-0.01 0.238-0.01 0.356-0.01z m6.986 0.082l2.938 0.028 0.582 15.848-2.948-0.036-0.572-15.84z m7.352 0.09l2.93 0.036 0.582 15.84-2.938-0.036-0.574-15.84z m7.342 0.082l2.938 0.036 0.582 15.84-2.938-0.028-0.582-15.848z m7.352 0.09l2.93 0.036 0.582 15.84-2.938-0.036-0.574-15.84z m7.342 0.092l2.938 0.036 0.582 15.84-2.938-0.036-0.582-15.84z m7.342 0.09l1.702 0.018c0.436 0 0.846 0.072 1.246 0.2l0.564 15.23a4.308 4.308 0 0 1-1.838 0.41l-1.092-0.018-0.582-15.84z" fill="#FFFFFF" p-id="2549"></path><path d="M701.64 915.588a8.632 8.632 0 0 1 8.506 8.606 8.384 8.384 0 0 1-8.506 8.406 8.632 8.632 0 0 1-8.506-8.606 8.376 8.376 0 0 1 8.506-8.406z" fill="#DFDFDF" p-id="2550"></path><path d="M701.64 916.944c3.948 0.046 7.152 3.284 7.152 7.232s-3.202 7.106-7.152 7.06c-3.948-0.046-7.142-3.284-7.142-7.232s3.192-7.106 7.142-7.06z" fill="#BBBBBB" p-id="2551"></path><path d="M701.64 922.394a1.734 1.734 0 0 1 1.71 1.72 1.692 1.692 0 0 1-1.71 1.684 1.732 1.732 0 0 1-1.702-1.72c0-0.938 0.764-1.694 1.702-1.684z" fill="#747474" p-id="2552"></path><path d="M679.876 919.41l11.436 0.136a11.086 11.086 0 0 0-0.854 5.43l-12.3-0.146 1.718-5.42z m1.002 12.936l13.438 0.164a11.414 11.414 0 0 1-3.484-5.486l-11.672-0.136 1.718 5.458zM570.818 929.7l72.848 0.872-5.286 5.932-63.13-0.764z" fill="#606060" p-id="2553"></path><path d="M531.27 852.166a10.314 10.314 0 0 0-10.454 10.336c0 5.778 4.686 10.518 10.454 10.58a10.302 10.302 0 0 0 10.462-10.326c0-5.778-4.686-10.518-10.462-10.59zM501 851.866a13.46 13.46 0 0 0-13.656 13.484c0 7.542 6.114 13.728 13.656 13.82a13.46 13.46 0 0 0 13.656-13.492c0-7.534-6.114-13.722-13.656-13.812z" fill="#FFFFFF" p-id="2554"></path><path d="M523.428 863.956a8.084 8.084 0 0 0 7.842 6.642 7.854 7.854 0 0 0 7.86-6.46l-15.702-0.182z" fill="#BBBBBB" p-id="2555"></path><path d="M531.27 854.65a7.852 7.852 0 0 0-7.842 6.468l15.704 0.192a8.112 8.112 0 0 0-7.862-6.66z" fill="#747474" p-id="2556"></path><path d="M501 862.192a3.284 3.284 0 0 0-3.32 3.276c0 1.838 1.492 3.348 3.32 3.366a3.27 3.27 0 0 0 3.32-3.276 3.37 3.37 0 0 0-3.32-3.366z" fill="#BBBBBB" p-id="2557"></path><path d="M497.926 854.368a11.372 11.372 0 0 0-8.442 10.8l6.196-1.082a5.38 5.38 0 0 1 2.248-3.156v-6.562z m-7.28 16.076c1.866 3.848 5.804 6.542 10.354 6.596a11.362 11.362 0 0 0 8.188-3.32l-5.268-3.512a5.4 5.4 0 0 1-2.92 0.8 5.566 5.566 0 0 1-3.912-1.684l-6.442 1.12z m21.336-1.302c0.354-1.1 0.546-2.266 0.546-3.484 0-5.578-3.966-10.272-9.226-11.408v6.304a5.572 5.572 0 0 1 3.194 4.94l5.486 3.648z" fill="#747474" p-id="2558"></path><path d="M531.096 856.068a1.4 1.4 0 0 0-1.42 1.402c0 0.782 0.636 1.42 1.42 1.428a1.392 1.392 0 0 0 1.42-1.392 1.444 1.444 0 0 0-1.42-1.438z" fill="#FFFFFF" p-id="2559"></path><path d="M539.958 888.94l-45.426-0.554a4.154 4.154 0 0 0-4.204 4.158l0.018 7.424c0 2.31 1.892 4.222 4.212 4.248l45.418 0.554a4.154 4.154 0 0 0 4.204-4.158l-0.018-7.424c0-2.31-1.892-4.22-4.204-4.248z" fill="#747474" p-id="2560"></path><path d="M539.95 888.94l-2.584-0.036-0.582 15.83 2.948 0.036 0.574-15.812c-0.12-0.008-0.238-0.018-0.356-0.018z m-6.988-0.092l-2.938-0.028-0.582 15.822 2.938 0.036 0.582-15.83z m-7.342-0.08l-2.948-0.046-0.574 15.83 2.938 0.036 0.584-15.82z m-7.352-0.092l-2.938-0.036-0.582 15.83 2.938 0.036 0.582-15.83z m-7.342-0.09l-2.948-0.036-0.574 15.83 2.93 0.036 0.592-15.83z m-7.35-0.092l-2.938-0.036-0.582 15.83 2.938 0.036 0.582-15.83z m-7.352-0.09l-1.692-0.018a4.34 4.34 0 0 0-1.246 0.172l-0.554 15.222c0.554 0.272 1.174 0.436 1.828 0.436l1.092 0.018 0.572-15.83z" fill="#E5E5E5" p-id="2561"></path><path d="M511.318 913.286a8.386 8.386 0 0 0-8.506 8.406 8.628 8.628 0 0 0 8.506 8.616 8.392 8.392 0 0 0 8.506-8.406 8.64 8.64 0 0 0-8.506-8.616z" fill="#DFDFDF" p-id="2562"></path><path d="M511.318 914.65a7.048 7.048 0 0 0-7.152 7.06 7.25 7.25 0 0 0 7.152 7.232c3.948 0.054 7.152-3.112 7.152-7.06s-3.204-7.176-7.152-7.232z" fill="#BBBBBB" p-id="2563"></path><path d="M511.318 920.092a1.68 1.68 0 0 0-1.702 1.692c0 0.938 0.756 1.702 1.702 1.71a1.67 1.67 0 0 0 1.702-1.674 1.736 1.736 0 0 0-1.702-1.728z" fill="#747474" p-id="2564"></path><path d="M533.08 917.636l-11.436-0.136a11.288 11.288 0 0 1 0.854 5.458l12.3 0.146-1.718-5.468z m-1 12.918l-13.438-0.154a11.124 11.124 0 0 0 3.484-5.404l11.672 0.136-1.718 5.422z" fill="#606060" p-id="2565"></path><path d="M73.394 557.418s36.838 51.322 67.626 68.226c30.796 16.904 25.966 27.776 10.272 28.376-15.704 0.6-4.84 1.2-28.386-6.042s-27.158-3.622-34.408-18.714c-7.252-15.094-15.104-71.846-15.104-71.846zM230.68 682.696c0.554 0.674 1.11 1.346 1.656 1.992 40.232 48.584 37.338 43.416 40.614 52.35 3.312 9.052 3.622 6.042 4.222 12.074 0.6 6.042 3.32 6.942 0.91 9.052-2.42 2.12-21.134 2.72-27.776-4.222-6.65-6.942-11.172-9.062-17.514-23.854-6.342-14.784-7.842-16.294-8.152-20.826-0.3-4.53-3.622-13.584-3.622-13.584l-6.342-19.024s4.23-3.922 7.852 0.3c3.622 4.232 8.152 5.742 8.152 5.742zM312.098 827.246c12.074 8.452 61.584 44.69 63.394 62.804 1.81 18.106 36.182 3.038 2.702 29.296-33.49 26.238-29.268 23.828-37.72 28.05-8.452 4.23 5.44 23.554-18.114 3.03-23.546-20.534-46.49-18.724-38.64-42.27s6.032-35.628 9.052-45.882c3.022-10.272 19.326-35.028 19.326-35.028z" fill="#9F877E" p-id="2566"></path><path d="M258.356 433.584s-6.324 16.586 95.402 57.964c101.716 41.386 101.434 50.722 117.128 73.666 15.694 22.936 26.566 22.946 18.114 39.85s-63.996 3.622-76.078-16.914c-12.074-20.526-28.058-26.884-31.398-41.05-3.33-14.166-13.284-14.494-22.946-20.534-9.654-6.032-26.566-15.694-26.566-15.694l-28.978-8.452-25.356-12.074-6.042-10.872-13.28-45.89z" fill="#8B6E62" p-id="2567"></path><path d="M396.018 681.732s46.792-6.032 53.132 1.81c6.342 7.842 1.21 14.184-4.222 20.224-5.44 6.042-27.776 18.106-38.648 8.152-10.864-9.954-34.108-25.956-34.108-25.956l23.846-4.23z" fill="#6C4C40" p-id="2568"></path><path d="M378.896 17.514c17.722 20.042 28.486 46.39 28.486 75.25 0 62.786-50.894 113.68-113.67 113.68-53.56 0-98.458-37.038-110.496-86.904 56.234-47.156 122.742-82.438 195.68-102.026z" fill="#FFF7C3" p-id="2569"></path><path d="M360.536 22.79c18.442 17.622 29.942 42.452 29.942 69.972 0 53.45-43.324 96.776-96.766 96.776-48.42 0-88.532-35.574-95.648-82 48.056-37.356 102.934-66.342 162.472-84.748z" fill="#FFF39B" p-id="2570"></path><path d="M340.348 29.524c19.378 14.312 31.944 37.302 31.944 63.24 0 43.406-35.182 78.588-78.58 78.588-42.724 0-77.488-34.09-78.562-76.56a510.592 510.592 0 0 1 125.198-65.268z" fill="#FFEF76" p-id="2571"></path><path d="M485.06 79.836c8.652 0 16.814 1.402 24.036 3.876 7.816-5.204 18.524-8.416 30.342-8.416 20.452 0 37.602 9.626 42.188 22.572 10.226 2.092 18.432 7.342 22.172 14.074a51.14 51.14 0 0 1 3.74-0.136c18.896 0 34.226 10.426 34.226 23.282 0 12.846-15.33 23.272-34.226 23.272-5.896 0-11.436-1.01-16.268-2.794-4.158 9.672-17.296 16.74-32.872 16.74-9.508 0-18.106-2.638-24.31-6.906-6.204 4.266-14.812 6.906-24.328 6.906-9.034 0-17.268-2.392-23.382-6.278-6.26 4.658-15.258 7.57-25.266 7.57-9.37 0-17.85-2.548-24.018-6.696a58.89 58.89 0 0 1-8.788 0.646c-22.526 0-40.778-12.41-40.778-27.722 0-15.322 18.25-27.73 40.778-27.73 1.228 0 2.448 0.036 3.648 0.118 2.894-18.214 25.568-32.378 53.106-32.378z" fill="#FFFFFF" p-id="2572"></path><path d="M460.186 325.136s11.536-2.474 21.19-0.628c9.68 1.846 19.77 9.88 30.678 10.5 10.908 0.61 8.644-3.512 8.644-3.512s-6.996 1.046-8.862-4.922c-1.838-5.968 5.768-10.718 17.496-18.942 11.746-8.224 14.002-16.458 11.746-21.616 0 0-2.066 3.294-11.746 8.442-9.672 5.15-16.658 14.62-24.274 21.398-7.616 6.806-8.034 7.206-15.24 5.768-7.196-1.438-22.634-3.702-29.632 3.512zM571.846 399.094s11.536-2.466 21.198-0.618c9.68 1.846 19.76 9.88 30.67 10.5 10.908 0.61 8.644-3.502 8.644-3.502s-6.996 1.028-8.852-4.94c-1.846-5.968 5.768-10.708 17.486-18.924 11.736-8.234 14.01-16.468 11.736-21.626 0 0-2.056 3.302-11.736 8.452-9.672 5.14-16.658 14.612-24.274 21.39-7.616 6.806-8.034 7.206-15.23 5.768-7.196-1.44-22.636-3.706-29.642 3.5zM650.964 218.58s11.536-2.474 21.19-0.618c9.68 1.846 19.77 9.872 30.678 10.5 10.908 0.61 8.644-3.502 8.644-3.502s-6.996 1.028-8.852-4.94c-1.846-5.968 5.76-10.708 17.496-18.932 11.736-8.234 13.992-16.468 11.736-21.616 0 0-2.066 3.294-11.736 8.442s-16.668 14.62-24.282 21.398c-7.616 6.796-8.034 7.206-15.24 5.768-7.2-1.45-22.638-3.706-29.634 3.5z" fill="" p-id="2573"></path></svg>