<?xml version="1.0" standalone="no"?><!DOCTYPE svg PUBLIC "-//W3C//DTD SVG 1.1//EN" "http://www.w3.org/Graphics/SVG/1.1/DTD/svg11.dtd"><svg t="1507716704007" class="icon" style="" viewBox="0 0 1024 1024" version="1.1" xmlns="http://www.w3.org/2000/svg" p-id="2703" xmlns:xlink="http://www.w3.org/1999/xlink" width="200" height="200"><defs><style type="text/css"></style></defs><path d="M512.01 0C794.768 0 1024 229.232 1024 512.01 1024 794.768 794.768 1024 512.01 1024 229.232 1024 0 794.768 0 512.01 0 229.232 229.232 0 512.01 0z" fill="#747474" p-id="2704"></path><path d="M515.566 134.6c237.066 0 429.238 192.192 429.238 429.256s-192.172 429.256-429.238 429.256c-237.084 0-429.256-192.192-429.256-429.256S278.48 134.6 515.566 134.6z" fill="#FFFFFF" p-id="2705"></path><path d="M141.672 774.822c-26.412-46.73-44.346-98.87-51.652-154.39 39.93 14.516 68.452 52.786 68.452 97.718 0.002 20.904-6.172 40.38-16.8 56.672z m278.99-489.464c-27.896 0-50.52-22.622-50.52-50.52 0-27.916 22.622-50.538 50.52-50.538 27.916 0 50.538 22.622 50.538 50.538 0 27.896-22.622 50.52-50.538 50.52z m-208.25 93.654c31.082 0 56.282 25.2 56.282 56.282 0 31.062-25.2 56.262-56.282 56.262s-56.262-25.2-56.262-56.262c-0.002-31.082 25.18-56.282 56.262-56.282z m190.316 135.4c-31.374 0-56.81-25.436-56.81-56.81 0-31.394 25.436-56.83 56.81-56.83 31.394 0 56.83 25.436 56.83 56.83-0.002 31.376-25.436 56.81-56.83 56.81z m257.83-186.33c-27.916 0-50.538-22.622-50.538-50.538 0-27.896 22.622-50.52 50.538-50.52 27.896 0 50.52 22.622 50.52 50.52 0 27.916-22.622 50.538-50.52 50.538z m-80.506 213.602c-27.916 0-50.538-22.622-50.538-50.538 0-27.896 22.622-50.52 50.538-50.52 27.896 0 50.52 22.622 50.52 50.52 0 27.916-22.622 50.538-50.52 50.538z m250.31-269.592c42.53 45.85 75.134 101 94.474 162.068a94.18 94.18 0 0 1-36.806 7.424c-52.218 0-94.552-42.334-94.552-94.552 0.002-30.516 14.458-57.65 36.884-74.94z m-54.796 350.49c-27.896 0-50.52-22.622-50.52-50.52s22.622-50.52 50.52-50.52c27.916 0 50.538 22.622 50.538 50.52s-22.622 50.52-50.538 50.52z m16.428 198.424c-27.896 0-50.52-22.622-50.52-50.538 0-27.896 22.622-50.52 50.52-50.52 27.916 0 50.538 22.622 50.538 50.52 0.002 27.914-22.62 50.538-50.538 50.538zM597.4 898.034c-27.896 0-50.52-22.622-50.52-50.52 0-27.916 22.622-50.538 50.52-50.538 27.916 0 50.538 22.622 50.538 50.538 0 27.898-22.622 50.52-50.538 50.52z m-50.344-198.346c-13.168 0-23.834-10.666-23.834-23.834 0-13.148 10.666-23.814 23.834-23.814 13.148 0 23.814 10.666 23.814 23.814 0 13.168-10.666 23.834-23.814 23.834z m-159.254 146.362c-27.896 0-50.52-22.622-50.52-50.538 0-27.896 22.622-50.52 50.52-50.52 27.916 0 50.538 22.622 50.538 50.52 0 27.916-22.622 50.538-50.538 50.538z m-104.73-223.448c16.332 0 29.576 13.226 29.576 29.576 0 16.332-13.246 29.558-29.576 29.558-16.332 0-29.576-13.226-29.576-29.558-0.002-16.352 13.244-29.576 29.576-29.576z" fill="#E5E5E5" p-id="2706"></path><path d="M510.252 696.172c169.94 0 325.952 24.83 448.402 66.246C870.938 918.528 703.81 1024 512.01 1024 319.798 1024 152.358 918.078 64.8 761.422c122-40.83 276.858-65.25 445.452-65.25z" fill="#BBBBBB" p-id="2707"></path><path d="M510.76 78.728h9.592v18.15h23.754v9.572h-23.754v91.134h-9.592V106.45h-23.756v-9.572h23.756z" fill="#333333" p-id="2708"></path><path d="M447.444 464.088h136.222v-160.876h32.88l-100.98-129.736-101 129.736h32.878z" fill="#333333" p-id="2709"></path><path d="M476.28 325.288h78.572v82.968H476.28z" fill="#FFFF00" p-id="2710"></path><path d="M490.344 325.288h2.208v15.746h13.85v-15.746h2.188v15.746h13.928v-15.746h2.208v15.746h13.85v-15.746h2.188v15.746h14.086v2.95h-14.086v13.284h14.086v2.95h-14.086v13.284h14.086v2.95h-14.086v13.284h14.086v2.93h-14.086v10.862h-2.188v-10.862h-13.85v10.862h-2.208v-10.842h-13.928v10.842h-2.188v-10.842h-13.85v10.842h-2.208v-10.842h-14.086v-2.95h14.086v-13.284h-14.086v-2.95h14.086v-13.304h-14.086v-2.93h14.086v-13.284h-14.086v-2.95h14.086v-15.746z m32.176 18.696h-13.928v13.284h13.928v-13.284z m-13.928 16.234v13.284h13.928v-13.284h-13.928z m13.928 16.234h-13.928v13.284h13.928v-13.284z m16.058-32.468v13.284h-13.85v-13.284h13.85z m0 16.234v13.284h-13.85v-13.284h13.85z m0 16.234v13.284h-13.85v-13.284h13.85z m-46.026-32.468v13.284h13.85v-13.284h-13.85z m0 16.214v13.304h13.85v-13.304h-13.85z m0 16.254v13.284h13.85v-13.284h-13.85zM663.568 344.1h9.592v18.148h23.756v9.572H673.16v91.134h-9.592V371.82h-23.756v-9.572h23.756v-18.148z m-306.496 0h9.572v18.148h23.774v9.572h-23.774v91.134h-9.572V371.82h-23.756v-9.572h23.756v-18.148z" fill="#333333" p-id="2711"></path><path d="M777.714 869.552c-5.392-41.552-26.764-65.6-39.032-129.444-2.384-12.366-14.436-71.324-14.436-71.324s14.222-6.7 0.156-34.286c-14.086-27.564-128.252-63.666-128.252-63.666l-0.39-0.664c-12.054-0.976-50.362-2.482-50.362-2.482l-51.438 1.426s-7.248-0.488-9.202-2.384c-1.934-1.894-14.73-28.288-14.73-28.288s-6.76-14.496-10.764-18.774c-4.004-4.298-35.164-11.428-38.74-11.428-3.556 0-6.954-0.234-6.954-0.234l-27.604 20.22-3.184-2.148 29.656-27.584 22.876 9.046 30.144 9.514 22.798 45.87 19.048-1.66 62.768-3.146 18.93 0.254c-9.124-16.214-24.126-43.662-26.94-54.094-4.082-15.218 1.7-36.14 4.67-42.802 2.95-6.642-28.678-32.312-28.678-32.312s-41.63-32.82-52.902-37.568c-11.252-4.766-50.422 5.216-50.422 5.216l-40.028-30.416 41.61 25.67s37.704-6.524 45.304-6.524c7.618 0 11.662 4.024 12.424 4.63 0.762 0.586 33.406 15.922 55.54 36.376 22.154 20.434 26.138 21.158 29.968 34.46 3.81 13.324-2.54 13.558-4.336 15.688-1.798 2.148-6.662 18.558 0.196 32.586 6.876 14.026 37.138 46.104 37.958 49.21 0.84 3.086 15.18 6.896 43.076 15.198 27.662 8.244 65.328 24.204 73.336 35.36 1.406-7.248 5.43-13.01 6.856-19.086 1.856-8.108-9.064-26.294-10.002-28.092-0.918-1.798-14.182-9.768-14.182-9.768l-18.794-5.802-57.278-28.894s-8.81-8.732-10.236-15.198c-1.446-6.446-12.152-41.768-12.152-41.768s0.45 0-4.65-3.908c-5.098-3.908-13.206-8.244-14.496-14.71s-5.43-34.714-5.43-34.714l-5.04-17.876s-7.56-1.798-9.28-3.75c-1.738-1.954-8.38-7.072-10.178-7.678-1.816-0.606-44.736-13.206-49.796-21.92-5.04-8.712-9.436-19.398-10.92-21.04-1.484-1.66-29.968-34.246-29.968-34.246s-0.88-3.322-5.002-21.958c-3.086-14.046-12.288-52.004-16.624-69.84l-9.006-3.692-6.604-5.196-8.908-12.21s-8.948-4.67-10.354-4.806a1019.82 1019.82 0 0 1-9.338-1.094l-21.314 6.446-2.716-1.934 18.442-5.88 11.506-2.618 15.16 5.9s10.236 13.03 10.726 13.85c0.372 0.606 7.228 3.712 10.98 5.392l-0.88-3.672-8.908-40.868s1.212-1.66 2.892 1.798 4.044 13.07 4.2 13.674 27.116 98.304 27.116 98.304 3.184 17.426 5.528 22.232c2.344 4.806 9.534 13.07 14.926 19.692 5.372 6.604 15.414 15.472 22.076 24.048 6.662 8.556 7.892 11.408 10.296 15.316 2.402 3.908 62.534 26.9 66.03 30.358 3.478 3.458 5.392 8.888 6.524 12.034 1.152 3.146 1.016 9.904 0.782 12.914-0.234 3.008 1.348 22.622 5.782 30.75 4.434 8.108 13.108 15.766 17.25 22.232 4.162 6.466 2.988 8.87 3.77 13.988 0.782 5.098 1.876 18.402 12.132 28.014 10.256 9.632 35.242 19.262 42.998 24.654 7.776 5.412 27.604 7.384 27.604 7.384l-13.616-49.132s-7.678-5.118-10.804-7.814c-3.146-2.716-23.658-15.336-23.658-15.336s-28.816-21.04-29.382-23.15c-0.566-2.11-10.94-29.44-10.94-29.44l-11.37-42.236-5.236-24.478-9.612-9.474s-26.666-19.828-29.596-22.838c-2.892-3.008-9.67-7.522-14.34-5.86-4.67 1.66-17.308 3.302-20.962 0.294-3.654-2.988-14.672-13.206-14.672-13.206s-1.758-18.188-4.142-21.49c-2.402-3.322-19.028-12.62-22.016-15.942-2.988-3.302-7.364-15.022-7.364-15.022l4.044-1.212 5.002 8.576s21.998 16.976 24.85 20.278c2.852 3.322 4.18 8.284 5.646 13.694 1.446 5.412 3.224 10.374 8.03 14.28 4.826 3.888 21.02 3.75 26.334 3.438 5.334-0.294 10.998-0.45 13.87 1.816 2.852 2.246 14.984 19.38 19.712 22.388 4.708 3.008 17.544 10.53 17.544 10.53l7.014 9.298s0.958-8.712 2.012-14.866c1.036-6.154 5.958-13.07 6.778-15.022 0.82-1.954 1.192-8.42 1.192-8.42s-3.712-29.89-3.654-35.32c0.04-5.392-7.286-17.582-9.65-21.332-2.364-3.75-6.446-15.042-6.446-15.042l-4.59-21.47-20.65-32.604s-1.68-5.098-0.664-13.07c1.016-7.97-1.152-16.528-1.152-16.528l-13.264-10.218s-3.106-0.898-11.994 0.156c-8.87 1.054-9.338-5.098-9.338-5.098s7.736-0.918 12.542-0.918 25.044 6.466 27.214 10.666c2.188 4.22 6.114 14.886 6.35 15.784 0.254 0.898-0.41 10.218-1.094 14.046-0.704 3.828-1.054 5.86 2.54 11.428 3.594 5.548 16.116 25.846 16.116 25.846s3.81 10.236 4.258 16.39c0.468 6.154 9.866 23.286 11.33 24.81 1.466 1.484 8.694 15.004 9.71 24.322 0.996 9.318 1.094 35.458 1.094 35.458s-9.944 22.252-8.888 30.67c1.074 8.42 1.66 11.722 2.734 21.332 1.094 9.632-0.04 9.924 2.266 24.048 2.306 14.124 5.176 34.872 10.726 42.08 5.548 7.208 17.66 12.014 17.66 12.014s28.15 23.6 31.14 25.26c3.008 1.66 4.494-5.098 4.494-5.098s-7.268-22.544-7.638-26.158 2.286-18.324 2.286-18.324l-9.298-22.252s-12.816-23.58-13.538-26.294c-0.742-2.696-12.072-38.172-13.148-51.086-1.074-12.932-5.606-21.938 3.516-23.756 9.142-1.798 39.502-45.382 39.502-45.382s10.55-45.694 11.468-56.81c0.898-11.116-4.454-36.668-4.454-36.668s-10.042-21.646-13.362-33.952c-3.302-12.326 0.02-23.462 0.02-23.462l3.556 0.078s-1.64 17.66 0.372 23.462c1.992 5.782 15.18 32.684 15.882 36.122 0.704 3.458 1.368 12.326 1.562 13.382 0.214 1.054 3.048 25.788 3.126 26.686 0.098 0.898-1.934 14.574-2.228 16.312-0.294 1.72-10.334 36.746-10.334 39.52 0 2.794-8.81 16.996-8.81 16.996l-27.624 34.714s-0.586 4.512-1.212 6.604c-0.644 2.11-2.754 4.356-2.754 4.356l3.888 20.298s10.334-21.626 13.948-23.286c3.614-1.66 14.144-12.776 16.684-15.628 2.54-2.852 36.082-46.28 36.082-46.28s-6.016-39.072-2.95-44.482c3.048-5.412 12.678-24.342 10.412-32.762s15.628-27.956 15.628-27.956l12.894-0.898-1.348 3.38-8.792 4.748s-11.234 21.626-11.644 22.31c-0.43 0.664 1.758 20.2 1.758 20.2s-12.014 16.254-11.428 20.16c0.606 3.908 3.712 31.1 4.278 33.21s-2.97 11.858-4.454 14.124c-1.504 2.266-8.966 14.73-8.966 14.73s-37.996 41.944-39.15 44.952c-1.152 2.988-6.408 10.218-8.83 15.784-2.402 5.548-2.364 8.772-2.364 8.772l3.614 20.63 7.54 8.302s17.308-10.51 21.49-11.722c4.18-1.192 10.9 0.312 14.378 0.898 3.458 0.606 10.96-3.888 12.424-6.31 1.446-2.402 16.098-18.324 16.098-18.324s-7.286-27.662-5.47-30.964c1.816-3.302 0.82-5.86 4.142-5.86 3.302 0 10.998 0.156 10.92-4.65-0.098-4.806 7.092-41.474 7.092-41.474l0.196-12.406 4.336 0.762 0.274 26.744-5.412 36.824-4.434 1.426-7.15 0.762-3.712 2.09s8.4 26.978 8.458 28.346c0.058 1.348-3.068 4.2-3.614 7.208s-3.868 6.916-6.036 11.116c-2.168 4.22-16.8 13.518-16.704 14.436 0.098 0.898-11.838 1.192-11.838 1.192s-17.114 1.798-17.386 3.008-9.768 10.9-9.768 10.9 7.286 19.32 7.892 22.622c0.586 3.322-1.27 8.712 0.234 16.546 1.484 7.814 2.618 12.014 2.618 12.014s25.22 2.11 29.07 3.008c3.848 0.898 11.78-0.898 11.78-0.898s6.544-15.922 8.85-17.446c2.286-1.484 14.944-11.408 14.944-11.408l5.334-23.756-1.758-13.226 31.1-8.4-3.302 6.27-22.76 6.604 4.044 12.502s-4.67 20.142-5.294 23.912c-0.644 3.75-8.908 8.264-9.514 9.318-0.626 1.036-12.66 19.984-13.42 22.68-0.782 2.716-8.244 5.118-8.244 5.118l-13.636-1.504-27.076-1.212s5.588 17.426 5.724 24.654c0.136 7.208 2.364 14.086 3.75 20.396 1.406 6.31 0.958 16.918 4.122 22.29l12.972 21.918s12.58 13.89 15.824 19.262c3.224 5.352 1.974 4.18 2.852 7.11l2.892-2.578s39.618-41.826 42.334-49.444c2.696-7.6 18.344-16.644 21.626-30.906 1.016-4.356 3.594-7.17 6.7-8.966l-3.614-42.334s-0.45-7.072-1.308-12.152c-0.84-5.098 0.958-12.268 1.484-14.554 0.528-2.286 1.798-22.622 1.798-22.622s-4.142-5.392-5.06-10.276c-0.898-4.884-6.056-36.044-6.056-36.044s1.778-3.828 4.942-7.482c3.184-3.634 7.56-4.356 7.814-6.114 0.254-1.778 6.388-40.302 6.388-40.302s1.66-44.326-3.848-53.274c-5.528-8.928-15.374-18.48-16.136-20.552-0.762-2.07-3.496-11.428-3.496-11.428l6.486-28.444s0.176-12.464-4.278-16.624c-4.434-4.162-9.436-13.5-9.436-13.5l3.262 1.348s10.51 10.49 12.972 16.508c2.442 6.016 2.228 16.41 1.348 19.75-0.88 3.322-2.852 7.15-2.852 7.15l0.176 17.972 5.216 13.304s8.888 5.176 12.698 17.016c3.81 11.838 4.532 32.312 4.532 32.312l-1.64 38.642-4.494 25.748s-11.33 7.268-11.546 10.392c-0.196 3.106 1.914 12.464 1.954 14.944 0.04 2.5 7.736 25.67 7.736 25.67s9.046-28.874 9.534-39.462c0.468-10.608-0.176-16.84 4.59-19.946 4.786-3.126 10.042-2.91 18.324-6.856 8.284-3.946 10.06-11.214 10.06-11.214s-3.458-12.054-1.212-14.554c2.228-2.482 26.822-3.732 27.624-8.518 0.782-4.766 4.864-16.606 6.252-17.64 1.388-1.036 33.016-6.232 33.016-6.232l-0.214 5.392-28.736 4.356s-3.654 14.964-6.818 17.876c-3.164 2.91-4.942 2.482-9.67 5.802-4.708 3.34-12.054 1.466-12.834 4.786-0.762 3.322-0.39 6.232-1.094 12.894-0.704 6.622-2.364 7.462-4.474 10.374-2.13 2.91-11.506 1.25-15.902 5.822-4.356 4.572-11.39 6.232-10.608 9.142 0.782 2.91 2.638 8.302 2.638 8.302s19.224-0.41 23.854-0.214c4.61 0.214 20.63 1.036 20.63 1.036s13.186-3.106 19.106-2.696c5.938 0.43 9.886 5.822 9.886 5.822l24.752 7.072 6.876-6.876 2.892 1.466-7.794 10.392s-15.53-2.91-19.302-3.732c-3.75-0.84-12.112-8.732-18.402-8.948-6.29-0.214-27.388 3.946-29.89 3.946-2.482 0-20.142-2.286-23.228-1.446-3.106 0.82-13.304 5.392-13.304 5.392s-3.048 11.018-4.24 16.624c-1.192 5.606-8.576 15.98-8.538 18.48 0.058 2.5-0.742 10.392-1.72 12.874-0.996 2.5-1.7 9.142-1.7 9.142l25.298-13.284s7.794 5.802 8.792 1.036c0.996-4.786 0.626-13.088 1.562-15.784 0.938-2.696 5.978-2.5 8.888-2.5s25.884-20.356 25.884-20.356 8.928-0.84 10.432 2.5c1.524 3.322 1.954 11.838 3.4 14.124 1.446 2.286 12.562 16.606 14.28 16.82s14.926-1.66 17.348-0.41c2.402 1.25 11.916 12.66 12.522 14.944 0.626 2.286-4.748 0.84-4.748 0.84l-8.146-10.178s-12.288 6.016-17.426 0.84c-5.138-5.196-9.904-6.662-12.522-11.018s-9.104-11.428-9.162-12.464c-0.078-1.036-1.816-7.482-1.816-7.482l-9.142 5.412s-17.308 15.14-18.286 15.356c-0.996 0.214-4.884 0.43-4.884 2.716-0.02 2.286-0.8 10.178-0.8 10.178l-3.868 4.162s-8.478 1.64-9.552 2.266c-1.074 0.626-23.6 12.678-23.6 12.678s3.418 33.68 5.45 52.864c0.898 0.058 1.446 0.118 1.446 0.118l46.358-2.93 33.602-19.966s12.17-4.298 20.024 1.894c7.834 6.174 10.882 10.452 11.662 13.304 0.762 2.852 53.566 25.084 53.566 25.084l15.628 0.274 0.176 4.884-13.754 0.196-55.95-22.818s-6.506-4.766-13.148-10.002c-6.642-5.216-11.486-3.79-11.486-3.79l-33.21 17.934-52.454 13.264 0.294 4.786c-15.844 3.888-23.97 24.264-30.084 36.59-8.01 16.176-35.808 66.558-38.582 70.368-2.794 3.81 2.638 20.454 2.638 20.454s5.764 70.836 6.154 79.392c0.41 8.556 11.35 20.922 26.452 39.95 15.082 19.008 8.322 25.67 13.988 48.488 3.692 14.866 10.784 41.67 15.862 59.192-19.788 7.644-40.73 13.7-62.806 17.96z" fill="#424242" p-id="2712"></path><path d="M735.048 693.71v129.17H294.598v-129.17h-0.372v-124.46h-56.224l123.486-129.736 37.488 39.382 115.846-122.272 115.848 122.272 37.488-39.382 123.486 129.736H735.42v124.46z" fill="#202020" p-id="2713"></path><path d="M395.03 727.644c18.852 0 34.286 15.434 34.286 34.286v56.4h-68.55v-56.4c-0.002-18.852 15.412-34.286 34.264-34.286z m120.536-15.472c18.852 0 34.266 15.414 34.266 34.286v71.872H481.28v-71.872c0-18.872 15.434-34.286 34.286-34.286z m120.514 15.472c18.852 0 34.286 15.434 34.286 34.286v56.4h-68.55v-56.4c0-18.852 15.412-34.286 34.264-34.286z" fill="#FFFF00" p-id="2714"></path><path d="M244.782 777.85l5.958-7.13 5.938 7.13v44.678h-11.898v-44.678z m535.16 0l5.938-7.13 5.938 7.13v44.678h-11.878v-44.678z m-26.764 0l5.938-7.13 5.958 7.13v44.678h-11.898v-44.678z m-26.764 0l5.958-7.13 5.938 7.13v44.678h-11.898v-44.678z m-26.744 0l5.938-7.13 5.958 7.13v44.678h-11.898v-44.678z m-26.764 0l5.938-7.13 5.958 7.13v44.678h-11.898v-44.678z m-26.744 0l5.938-7.13 5.938 7.13v44.678h-11.878v-44.678z m-26.764 0l5.938-7.13 5.958 7.13v44.678h-11.898v-44.678z m-26.764 0l5.938-7.13 5.958 7.13v44.678h-11.898v-44.678z m-26.764 0l5.958-7.13 5.938 7.13v44.678h-11.898v-44.678z m-26.744 0l5.938-7.13 5.938 7.13v44.678h-11.878v-44.678z m-26.764 0l5.958-7.13 5.938 7.13v44.678h-11.898v-44.678z m-26.764 0l5.958-7.13 5.938 7.13v44.678h-11.898v-44.678z m-26.744 0l5.938-7.13 5.938 7.13v44.678h-11.878v-44.678z m-26.764 0l5.938-7.13 5.958 7.13v44.678h-11.898v-44.678z m-26.764 0l5.958-7.13 5.938 7.13v44.678h-11.898v-44.678z m-26.744 0l5.938-7.13 5.958 7.13v44.678h-11.898v-44.678z m-26.764 0l5.938-7.13 5.958 7.13v44.678h-11.898v-44.678z m-26.744 0l5.938-7.13 5.938 7.13v44.678h-11.878v-44.678z m-26.764 0l5.938-7.13 5.958 7.13v44.678h-11.898v-44.678z m-26.764 0l5.938-7.13 5.958 7.13v44.678h-11.898v-44.678z" fill="#424242" p-id="2715"></path><path d="M228.06 793.362h580.5v9.3H228.06z" fill="#424242" p-id="2716"></path><path d="M641.98 570.774h53.822v73.708H641.98zM335.33 570.774h53.8v73.708h-53.8zM515.566 563.858c18.852 0 34.266 15.414 34.266 34.286v72.712H481.28v-72.712c0-18.874 15.434-34.286 34.286-34.286zM514.822 460.67c18.304 0 33.152 14.848 33.152 33.152h-66.324c0.002-18.304 14.868-33.152 33.172-33.152z" fill="#FFFF00" p-id="2717"></path><path d="M514.822 460.67c0.528 0 1.054 0.02 1.562 0.04v25.708c0.664 0.118 1.29 0.294 1.894 0.546l11.506-22.74c0.938 0.468 1.836 0.996 2.716 1.544l-11.566 22.856c0.546 0.508 1.036 1.074 1.466 1.68l20.082-14.768c0.586 0.88 1.114 1.778 1.602 2.716l-20.396 15.004c0.04 0.176 0.078 0.372 0.118 0.566h-3.966l-0.02-0.058-0.02-0.02v-0.04l-0.02-0.02v-0.04l-0.02-0.02v-0.02l-0.02-0.02v-0.04l-0.02-0.02v-0.04l-0.02-0.02v-0.02l-0.02-0.02v-0.02l-0.02-0.02v-0.04l-0.02-0.02v-0.02l-0.02-0.02v-0.02l-0.02-0.02v-0.04l-0.02-0.02v-0.02l-0.02-0.02v-0.02l-0.02-0.02v-0.02l-0.02-0.02v-0.02l-0.02-0.02v-0.04l-0.02-0.02-0.02-0.02-0.02-0.02v-0.02l-0.02-0.02v-0.02l-0.02-0.02v-0.02l-0.02-0.02v-0.02l-0.02-0.02v-0.02l-0.02-0.02v-0.02l-0.02-0.02-0.04-0.04v-0.02l-0.02-0.02v-0.02c-0.058-0.098-0.136-0.196-0.196-0.294-0.04-0.058-0.078-0.098-0.118-0.156l-0.04-0.04-0.04-0.04-0.02-0.04-0.04-0.04-0.04-0.04a1.37 1.37 0 0 0-0.156-0.176l-0.04-0.04-0.04-0.04-0.02-0.04-0.04-0.04-0.04-0.04-0.02-0.02h-0.02l-0.04-0.04-0.04-0.04-0.04-0.02-0.04-0.04-0.04-0.04-0.04-0.04-0.04-0.02-0.02-0.02-0.02-0.02-0.04-0.04-0.02-0.02h-0.02l-0.04-0.04c-0.04-0.02-0.078-0.058-0.118-0.078l-0.04-0.04-0.04-0.02-0.04-0.04-0.04-0.02-0.058-0.04-0.04-0.02-0.04-0.02-0.04-0.04-0.04-0.02-0.058-0.02-0.04-0.02-0.078-0.058-0.04-0.02-0.058-0.02-0.04-0.02-0.04-0.04-0.058-0.02-0.04-0.02-0.058-0.02-0.04-0.02-0.04-0.02h-0.02l-0.04-0.02-0.04-0.02h-0.02l-0.04-0.02-0.04-0.02h-0.02l-0.02-0.02-0.058-0.02h-0.02l-0.04-0.02-0.04-0.02a0.342 0.342 0 0 1-0.136-0.04h-0.02l-0.04-0.02h-0.04l-0.02-0.02h-0.04l-0.02-0.02h-0.02l-0.04-0.02h-0.06l-0.04-0.02h-0.06v-0.02h-0.08l-0.02-0.02h-0.08l-0.02-0.02H515.61l-0.02-0.02h-0.098l-0.02-0.02h-0.118l-0.02-0.02H515.094l-0.02-0.02H514.394l-0.02 0.02H514.134l-0.02 0.02H513.994l-0.04 0.02h-0.098v0.02H513.736l-0.02 0.02h-0.08l-0.02 0.02h-0.08v0.02h-0.06l-0.04 0.02h-0.06l-0.04 0.02h-0.02l-0.02 0.02h-0.04l-0.02 0.02h-0.06l-0.02 0.02h-0.02l-0.136 0.04-0.058 0.02-0.02 0.02h-0.02l-0.058 0.02-0.02 0.02h-0.02l-0.058 0.02-0.04 0.02-0.04 0.02-0.04 0.02h-0.02l-0.04 0.02-0.04 0.02h-0.02l-0.04 0.02-0.04 0.02-0.058 0.02-0.04 0.04-0.04 0.02-0.234 0.118-0.04 0.02a0.776 0.776 0 0 1-0.176 0.098l-0.41 0.294-0.04 0.04c-0.078 0.078-0.176 0.156-0.254 0.234l-0.04 0.04-0.04 0.02-0.04 0.04c-0.098 0.118-0.214 0.214-0.312 0.332l-0.02 0.04a0.51 0.51 0 0 0-0.098 0.118l-0.04 0.04c-0.04 0.058-0.078 0.098-0.118 0.156-0.078 0.098-0.136 0.196-0.196 0.294l-0.02 0.02v0.02l-0.02 0.02-0.02 0.04-0.02 0.02-0.02 0.02v0.04l-0.02 0.02-0.02 0.02v0.02l-0.02 0.02v0.02l-0.02 0.02v0.04l-0.02 0.02-0.02 0.02-0.02 0.02v0.02l-0.02 0.02v0.04l-0.02 0.02v0.02l-0.02 0.02v0.02l-0.02 0.02v0.02l-0.02 0.02v0.04h-0.02v0.04l-0.02 0.02v0.02h-0.02v0.06l-0.02 0.02v0.02l-0.02 0.02v0.02l-0.02 0.04v0.02h-0.02v0.06l-0.02 0.02v0.02l-0.02 0.02-0.058 0.176h-3.966c0.04-0.196 0.078-0.39 0.118-0.566l-20.414-15.004c0.508-0.938 1.036-1.836 1.622-2.716l20.082 14.768c0.43-0.606 0.898-1.172 1.466-1.68l-11.584-22.856a38.74 38.74 0 0 1 2.734-1.544l11.506 22.74a8.74 8.74 0 0 1 1.894-0.546v-25.708c0.658 0 1.186-0.02 1.712-0.02z" fill="#333333" p-id="2718"></path><path d="M515.566 269.202c14.866 0 26.92 12.054 26.92 26.92h-53.84c0-14.868 12.052-26.92 26.92-26.92z" fill="#FFFF00" p-id="2719"></path><path d="M515.566 269.202c0.41 0 0.84 0 1.27 0.04v20.864c0.528 0.078 1.036 0.234 1.544 0.43l9.318-18.442c0.762 0.372 1.504 0.8 2.228 1.25l-9.396 18.558c0.45 0.41 0.84 0.86 1.172 1.368l16.312-11.994c0.468 0.704 0.918 1.446 1.308 2.188l-16.566 12.19c0.04 0.156 0.078 0.312 0.098 0.468h-3.222l-0.02-0.058v-0.02l-0.02-0.02v-0.06l-0.02-0.02v-0.02l-0.02-0.02v-0.04h-0.02v-0.04l-0.02-0.02v-0.04h-0.02v-0.04l-0.02-0.02v-0.04h-0.02v-0.04l-0.02-0.02v-0.02l-0.02-0.02v-0.02l-0.02-0.02v-0.02l-0.02-0.02v-0.02l-0.02-0.02v-0.02l-0.02-0.04h-0.02v-0.04l-0.02-0.02-0.02-0.02v-0.04h-0.02v-0.02l-0.02-0.02v-0.02h-0.02l-0.02-0.058-0.02-0.02v-0.02l-0.176-0.234c-0.02-0.04-0.058-0.078-0.078-0.136l-0.04-0.02-0.02-0.04-0.02-0.02-0.04-0.04-0.02-0.02a1.224 1.224 0 0 0-0.136-0.156l-0.02-0.04-0.04-0.02-0.02-0.04-0.04-0.02-0.02-0.04-0.02-0.02h-0.02l-0.02-0.04-0.04-0.02-0.02-0.02-0.04-0.04-0.04-0.02-0.02-0.04-0.04-0.02-0.02-0.02h-0.02l-0.02-0.04h-0.04l-0.04-0.04c-0.02-0.02-0.058-0.04-0.098-0.078l-0.02-0.02-0.04-0.02-0.04-0.02-0.02-0.02h-0.02l-0.02-0.04-0.04-0.02-0.04-0.02-0.04-0.02-0.02-0.02-0.04-0.02-0.04-0.02-0.058-0.04h-0.02l-0.04-0.02-0.02-0.02-0.04-0.02-0.04-0.02-0.04-0.02-0.04-0.02-0.04-0.02h-0.04l-0.04-0.02v-0.02h-0.02l-0.058-0.02-0.02-0.02-0.058-0.02h-0.02l-0.058-0.02-0.02-0.02h-0.058a0.148 0.148 0 0 0-0.098-0.04l-0.02-0.02h-0.04l-0.02-0.02h-0.06l-0.02-0.02h-0.06l-0.02-0.02h-0.06l-0.02-0.02h-0.04l-0.04-0.02h-0.1v-0.02h-0.1l-0.058-0.02h-0.04l-0.058-0.02H515.92l-0.02-0.02H515.1l-0.02 0.02h-0.14l-0.02 0.02h-0.1l-0.04 0.02h-0.08l-0.02 0.02h-0.1l-0.02 0.02h-0.06l-0.02 0.02h-0.04l-0.04 0.02h-0.06l-0.02 0.02h-0.06l-0.02 0.02h-0.04l-0.02 0.02-0.098 0.04h-0.04l-0.02 0.02h-0.02l-0.04 0.02h-0.04l-0.04 0.02h-0.02l-0.02 0.02-0.04 0.02h-0.02l-0.02 0.02-0.04 0.02h-0.04l-0.04 0.02-0.02 0.02h-0.02l-0.04 0.02-0.02 0.02-0.04 0.02c-0.078 0.04-0.136 0.058-0.176 0.098l-0.04 0.02c-0.058 0.02-0.098 0.058-0.136 0.078h-0.02a4.77 4.77 0 0 1-0.332 0.234l-0.02 0.04a2.014 2.014 0 0 0-0.214 0.176l-0.04 0.04-0.02 0.02-0.04 0.04c-0.078 0.078-0.156 0.176-0.234 0.274l-0.04 0.02c-0.02 0.04-0.058 0.058-0.078 0.098l-0.02 0.02c-0.04 0.058-0.078 0.098-0.098 0.136-0.058 0.078-0.118 0.156-0.156 0.234l-0.02 0.02v0.02h-0.02l-0.02 0.058-0.02 0.02v0.02h-0.02v0.02l-0.02 0.02v0.02l-0.02 0.02v0.02l-0.02 0.02v0.02h-0.02v0.04l-0.02 0.02-0.02 0.02v0.04l-0.02 0.02-0.02 0.02v0.04h-0.02v0.06h-0.02v0.02l-0.02 0.02v0.04h-0.02v0.04h-0.02v0.06l-0.02 0.04h-0.02v0.06l-0.02 0.02v0.02c-0.02 0.058-0.04 0.098-0.058 0.156h-3.224c0.02-0.156 0.058-0.312 0.098-0.468l-16.566-12.19c0.41-0.742 0.84-1.484 1.308-2.188l16.312 11.994a7.08 7.08 0 0 1 1.172-1.368l-9.378-18.558c0.704-0.45 1.446-0.88 2.208-1.25l9.338 18.442a6.74 6.74 0 0 1 1.524-0.43V269.24c0.554-0.038 0.984-0.038 1.414-0.038zM540.356 647.568l3.086-3.712 3.106 3.712v23.286h-6.192v-23.286z m-13.948 0l3.106-3.712 3.086 3.712v23.286h-6.192v-23.286z m-13.948 0l3.106-3.712 3.086 3.712v23.286h-6.192v-23.286z m-13.95 0l3.106-3.712 3.086 3.712v23.286h-6.192v-23.286z m-13.948 0l3.106-3.712 3.106 3.712v23.286h-6.212v-23.286z" fill="#333333" p-id="2720"></path><path d="M481.28 655.656h68.55v4.844H481.28zM351.642 570.774h2.56v14.828h16.058v-14.828h2.56v14.828h16.312v2.774h-16.312v12.522h16.312v2.774h-16.312v12.542h16.312v2.754h-16.312v12.522h16.312v2.774h-16.312v10.218h-2.56v-10.218h-16.06v10.218h-2.56v-10.218h-16.312v-2.774h16.312v-12.522h-16.312v-2.754h16.312v-12.542h-16.312v-2.774h16.312v-12.522h-16.312V585.6h16.312v-14.826z m2.558 17.6v12.522h16.058v-12.522H354.2z m0 15.298v12.542h16.058v-12.542H354.2z m0 15.296v12.522h16.058v-12.522H354.2zM658.312 570.774h2.54v14.828h16.058v-14.828h2.56v14.828h16.332v2.774h-16.332v12.522h16.332v2.774h-16.332v12.542h16.332v2.754h-16.332v12.522h16.332v2.774h-16.332v10.218h-2.56v-10.218h-16.058v10.218h-2.54v-10.218h-16.332v-2.774h16.332v-12.522h-16.332v-2.754h16.332v-12.542h-16.332v-2.774h16.332v-12.522h-16.332V585.6h16.332v-14.826z m2.54 17.6v12.522h16.058v-12.522h-16.058z m0 15.298v12.542h16.058v-12.542h-16.058z m0 15.296v12.522h16.058v-12.522h-16.058z" fill="#333333" p-id="2721"></path><path d="M680.134 261.856l-51.614 10.764c12.738-0.762 32.194 9.866 33.152 17.954 13.616-1.758 13.44 1.894 20.318 7.932 12.6-4.064 23.092 3.634 24.948 5.51 4.474 4.572 6.544 7.58 9.826 7.716 4.258 0.176 6.466-4.962 10.686-8.068 5.314-3.946 12.854-6.056 20.492-5.606 6.232-5.9 10.784-11.546 23.346-6.622 0.958-8.088 19.79-19.574 32.526-18.812l-49.328-10.706c-2.814 10.022-20.806 37.626-26.568 9.338 0 0 2.052-1.7-1.388-7.384-3.438-5.704-6.818 4.786-6.818 4.786-1.308 0.078-2.422 0.02-2.988 0.528-0.566-0.508-1.68-0.45-2.988-0.528 0 0-3.38-10.49-6.818-4.786-3.438 5.684-1.388 7.384-1.388 7.384-5.684 27.834-22.29 1.656-25.396-9.4z" fill="#202020" p-id="2722"></path><path d="M724.87 270.686l-6.7 5.392s2.54 2.052 5.352 0.918c2.814-1.114 1.348-6.31 1.348-6.31z" fill="#FFFF00" p-id="2723"></path><path d="M724.87 270.686l-6.7 5.392 0.058 0.058 6.29-4.2c0.508 1.64 0.41 3.086-0.214 4.552 1.718-1.72 0.566-5.802 0.566-5.802z" fill="#FFBA00" p-id="2724"></path><path d="M708.578 270.686l6.72 5.392s-2.56 2.052-5.372 0.918c-2.814-1.114-1.348-6.31-1.348-6.31z" fill="#FFFF00" p-id="2725"></path><path d="M708.578 270.686l6.72 5.392s-0.04 0.02-0.098 0.058l-6.27-4.2c-0.508 1.64-0.39 3.086 0.214 4.552-1.72-1.72-0.566-5.802-0.566-5.802z" fill="#FFBA00" p-id="2726"></path><path d="M159.704 418.884l-62.006 46.826c16.488-9.026 49.094-7.11 55.462 3.068 17.054-10.92 19.106-5.938 32.058-2.208 14.262-13.362 33.094-9.71 36.728-8.362 8.83 3.262 13.48 5.938 17.954 4.064 5.782-2.442 5.49-10.666 9.142-17.464 4.61-8.616 13.342-16.156 23.794-20.356 4.59-11.82 7.072-22.192 26.94-23.54-3.81-11.37 14.046-38.524 31.492-45.518l-72.458 16.782c2.56 15.12-4.044 63.218-29.518 29.148 0 0 1.66-3.556-6.506-8.966-8.186-5.43-6.076 10.666-6.076 10.666-1.68 0.938-3.204 1.544-3.654 2.578-1.074-0.312-2.5 0.488-4.318 1.192 0 0-11.096-11.858-12.092-2.09-0.996 9.748 2.794 10.726 2.794 10.726 9.982 40.668-28.64 16.23-39.736 3.454z" fill="#202020" p-id="2727"></path><path d="M224.856 402.492l-5.528 11.408s4.67 1.114 7.716-2.148c3.028-3.262-2.188-9.26-2.188-9.26z" fill="#FFFF00" p-id="2728"></path><path d="M224.856 402.492l-5.528 11.408s0.04 0.02 0.136 0.04l5.724-9.572c1.68 1.876 2.462 3.868 2.578 6.192 1.192-3.34-2.91-8.068-2.91-8.068z" fill="#FFBA00" p-id="2729"></path><path d="M203.17 412.75l12.326 2.97s-2.11 4.318-6.564 4.59c-4.452 0.272-5.762-7.56-5.762-7.56z" fill="#FFFF00" p-id="2730"></path><path d="M203.17 412.75l12.326 2.97s-0.02 0.04-0.078 0.136l-11.018-1.68c0.372 2.5 1.426 4.376 3.146 5.938-3.34-1.192-4.376-7.364-4.376-7.364z" fill="#FFBA00" p-id="2731"></path><path d="M344.628 995.986c86.132-38.934-34.266-36.298-30.75-76.912 3.146-36.102 86.954-20.142 174.024-45.264 87.09-25.104 6.604-49.992 6.604-49.992 81.698-2.578 146.108 45.83 76.696 74.06-69.43 28.248-55.696 40.81 24.322 56.498 24.772 4.864 56.184 20.708 87.716 40.262C629.692 1013.626 572.062 1024 512.01 1024c-58.626 0-114.928-9.866-167.382-28.014zM173.496 735.908h2.93c0.704 0 1.27 0.88 1.27 1.934v68.628c0 1.074-0.566 1.934-1.27 1.934h-2.93c-0.704 0-1.27-0.86-1.27-1.934v-68.628c0-1.056 0.566-1.934 1.27-1.934z" fill="#424242" p-id="2732"></path><path d="M168.67 803.97h9.084c10.08 0 18.344 8.302 18.344 18.324v18.618H150.346v-18.618c0-10.08 8.244-18.324 18.324-18.324z" fill="#9499A3" p-id="2733"></path><path d="M168.632 806.958h7.872c8.732 0 15.882 7.618 15.882 16.86v17.094H152.75v-17.094c0-9.28 7.15-16.86 15.882-16.86z" fill="#EDEBFF" p-id="2734"></path><path d="M151.714 756.596v-2.95c0-0.704 0.782-1.27 1.758-1.27l42.764-0.098c0.976 0 1.778 0.566 1.778 1.27l0.02 2.95c0 0.704-0.8 1.29-1.778 1.29l-42.744 0.078c-0.978 0.02-1.798-0.566-1.798-1.27z" fill="#424242" p-id="2735"></path><path d="M912.12 268.224c1.016 1.622 0.234 3.926-1.738 5.158-4.67 2.93-8.342-2.95-3.672-5.88 1.972-1.232 4.394-0.9 5.41 0.722z m107.758 178.458c0.196 1.484 0.332 3.008 0.508 4.512-0.352 0.546-0.86 1.036-1.484 1.446-1.974 1.23-4.376 0.898-5.392-0.704-1.016-1.622-0.254-3.946 1.72-5.176 1.58-0.976 3.436-0.976 4.648-0.078zM366.762 108.228c1.914 0 3.478 1.876 3.478 4.2 0 2.306-1.562 4.18-3.478 4.18-1.914 0-3.458-1.876-3.458-4.18 0-2.326 1.544-4.2 3.458-4.2z m274.456 14.69c1.914 0 3.458 1.876 3.458 4.2 0 2.306-1.544 4.18-3.458 4.18s-3.458-1.876-3.458-4.18c0-2.324 1.544-4.2 3.458-4.2z m-447.6 6.29c1.914 0 3.458 1.876 3.458 4.2s-1.544 4.2-3.458 4.2c-1.914 0-3.458-1.876-3.458-4.2s1.544-4.2 3.458-4.2zM151.186 177.482c1.914 0 3.478 1.876 3.478 4.2 0 2.324-1.562 4.2-3.478 4.2-1.914 0-3.458-1.876-3.458-4.2 0-2.326 1.544-4.2 3.458-4.2z m101.292 5.254c1.914 0 3.478 1.876 3.478 4.18 0 2.324-1.562 4.2-3.478 4.2s-3.458-1.876-3.458-4.2c0-2.304 1.544-4.18 3.458-4.18z m78.808-25.182c1.894 0 3.458 1.856 3.458 4.18s-1.562 4.2-3.458 4.2c-1.934 0-3.478-1.876-3.478-4.2s1.544-4.18 3.478-4.18z m-39.834-71.362c1.914 0 3.458 1.876 3.458 4.2 0 2.306-1.544 4.2-3.458 4.2s-3.458-1.894-3.458-4.2c0-2.326 1.544-4.2 3.458-4.2z m-89.18 126.962c1.914 0 3.458 1.876 3.458 4.2 0 2.324-1.544 4.2-3.458 4.2s-3.458-1.876-3.458-4.2c0-2.326 1.544-4.2 3.458-4.2z m59.74-91.29c1.914 0 3.458 1.876 3.458 4.2 0 2.324-1.544 4.2-3.458 4.2s-3.458-1.876-3.458-4.2c0-2.326 1.544-4.2 3.458-4.2z m-116.882 125.926c1.914 0 3.458 1.876 3.458 4.2 0 2.306-1.544 4.2-3.458 4.2s-3.458-1.894-3.458-4.2c0-2.324 1.544-4.2 3.458-4.2z m548.034-146.908c1.914 0 3.458 1.876 3.458 4.2 0 2.306-1.544 4.18-3.458 4.18-1.914 0-3.458-1.876-3.458-4.18 0-2.324 1.544-4.2 3.458-4.2z m-116.882 10.49c1.914 0 3.478 1.876 3.478 4.2 0 2.306-1.562 4.2-3.478 4.2-1.914 0-3.458-1.894-3.458-4.2 0-2.324 1.544-4.2 3.458-4.2z m-157.574-76.598c1.914 0 3.478 1.876 3.478 4.2 0 2.306-1.562 4.18-3.478 4.18-1.894 0-3.458-1.876-3.458-4.18 0-2.326 1.562-4.2 3.458-4.2z m135.928 6.29c1.914 0 3.458 1.876 3.458 4.2 0 2.306-1.544 4.2-3.458 4.2s-3.458-1.894-3.458-4.2c0-2.324 1.544-4.2 3.458-4.2zM69.488 347.5c1.934 0 3.478 1.894 3.478 4.2 0 2.324-1.544 4.2-3.478 4.2-1.894 0-3.458-1.876-3.458-4.2 0-2.304 1.564-4.2 3.458-4.2z m-42.412 48.272c1.914 0 3.458 1.894 3.458 4.2 0 2.324-1.544 4.2-3.458 4.2s-3.458-1.876-3.458-4.2c0-2.304 1.544-4.2 3.458-4.2z m140.246-91.29c1.914 0 3.478 1.876 3.478 4.2 0 2.306-1.562 4.2-3.478 4.2-1.894 0-3.458-1.894-3.458-4.2 0.002-2.324 1.564-4.2 3.458-4.2z m-89.16 126.982c1.914 0 3.458 1.876 3.458 4.2 0 2.306-1.544 4.2-3.458 4.2-1.914 0-3.478-1.894-3.478-4.2 0-2.324 1.564-4.2 3.478-4.2z m59.74-91.31c1.894 0 3.458 1.894 3.458 4.2 0 2.324-1.562 4.2-3.458 4.2-1.914 0-3.458-1.876-3.458-4.2 0-2.304 1.544-4.2 3.458-4.2zM21.02 466.082c1.914 0 3.458 1.894 3.458 4.2 0 2.324-1.544 4.2-3.458 4.2s-3.478-1.876-3.478-4.2c0.002-2.306 1.564-4.2 3.478-4.2zM802.446 132.588c1.016 1.622 0.234 3.926-1.72 5.158-1.974 1.23-4.396 0.918-5.412-0.704-1.016-1.622-0.234-3.926 1.72-5.158 1.974-1.23 4.376-0.918 5.412 0.704z m-63.432-10.334c1.016 1.602 0.234 3.926-1.72 5.158-1.974 1.23-4.396 0.918-5.392-0.704-1.016-1.622-0.254-3.946 1.72-5.176 1.954-1.232 4.376-0.9 5.392 0.722z m49.308 88.634c1.016 1.622 0.234 3.946-1.72 5.158-1.974 1.23-4.396 0.918-5.392-0.704-1.016-1.622-0.254-3.926 1.72-5.158 1.954-1.23 4.376-0.918 5.392 0.704z m63.158 53.41c1.016 1.622 0.234 3.926-1.738 5.176-1.954 1.23-4.376 0.898-5.392-0.722s-0.234-3.926 1.72-5.158c1.972-1.23 4.394-0.918 5.41 0.704z m39.346-71.618c0.996 1.622 0.234 3.926-1.72 5.158-1.974 1.23-4.396 0.918-5.412-0.704-1.016-1.622-0.234-3.926 1.738-5.158 1.956-1.23 4.378-0.918 5.394 0.704z m-154.938-8.204c0.996 1.622 0.234 3.926-1.738 5.158-1.954 1.23-4.376 0.918-5.392-0.704s-0.234-3.926 1.72-5.158c1.972-1.23 4.374-0.918 5.41 0.704z m109.068 2.188c1.016 1.622 0.254 3.926-1.72 5.158s-4.376 0.918-5.392-0.704c-1.016-1.622-0.254-3.926 1.72-5.158 1.974-1.23 4.376-0.918 5.392 0.704z m-168.75-32.234c1.016 1.622 0.234 3.926-1.72 5.158-1.974 1.23-4.376 0.918-5.392-0.704-1.016-1.64-0.254-3.946 1.72-5.176 1.954-1.232 4.378-0.92 5.392 0.722z" fill="#FFFFFF" p-id="2736"></path></svg>